<svg xmlns="http://www.w3.org/2000/svg" xmlns:xlink="http://www.w3.org/1999/xlink" width="384" zoomAndPan="magnify" viewBox="0 0 288 44.999999" height="60" preserveAspectRatio="xMidYMid meet" version="1.0"><defs><g/><clipPath id="id1"><path d="M 0 10 L 23 10 L 23 33 L 0 33 Z M 0 10 " clip-rule="nonzero"/></clipPath><clipPath id="id2"><path d="M -6.316406 21.679688 L 11.820312 3.542969 L 29.957031 21.679688 L 11.820312 39.816406 Z M -6.316406 21.679688 " clip-rule="nonzero"/></clipPath><clipPath id="id3"><path d="M -6.316406 21.679688 L 11.820312 3.542969 L 29.957031 21.679688 L 11.820312 39.816406 Z M -6.316406 21.679688 " clip-rule="nonzero"/></clipPath></defs><g fill="rgb(14.118958%, 14.118958%, 14.118958%)" fill-opacity="1"><g transform="translate(40.676612, 32.80541)"><g><path d="M 3.675781 -0.0273438 C 3.851562 0 4.289062 0.0273438 5.046875 0 C 6.011719 0 6.15625 -0.0273438 6.390625 -0.117188 C 6.855469 -0.292969 7.117188 -0.613281 7.265625 -1.136719 C 7.292969 -1.285156 7.324219 -2.421875 7.351562 -4.871094 C 7.382812 -8.316406 7.382812 -8.429688 7.46875 -8.605469 C 7.527344 -8.695312 7.671875 -8.8125 7.761719 -8.867188 C 7.964844 -8.957031 8.050781 -8.957031 11.757812 -8.957031 C 14.296875 -8.925781 15.609375 -8.925781 15.726562 -8.898438 C 15.957031 -8.8125 16.164062 -8.605469 16.191406 -8.34375 C 16.222656 -8.226562 16.25 -6.5625 16.25 -4.640625 C 16.28125 -1.195312 16.308594 -1.136719 16.394531 -0.875 C 16.511719 -0.582031 16.746094 -0.320312 17.007812 -0.175781 C 17.359375 0 17.707031 0.0273438 18.90625 0 C 19.957031 0 20.042969 0 20.277344 -0.117188 C 20.742188 -0.320312 21.003906 -0.699219 21.09375 -1.3125 C 21.121094 -1.515625 21.152344 -5.339844 21.152344 -11.726562 C 21.179688 -21.5 21.179688 -21.851562 21.09375 -22.085938 C 20.917969 -22.550781 20.597656 -22.84375 20.160156 -22.988281 C 19.867188 -23.078125 18.089844 -23.136719 17.59375 -23.078125 C 16.980469 -22.960938 16.542969 -22.667969 16.335938 -22.144531 L 16.25 -21.882812 L 16.222656 -18.234375 C 16.191406 -14.792969 16.191406 -14.585938 16.105469 -14.414062 C 15.929688 -14.0625 16.164062 -14.089844 11.84375 -14.0625 C 8.023438 -14.0625 7.964844 -14.0625 7.761719 -14.148438 C 7.644531 -14.207031 7.527344 -14.296875 7.46875 -14.414062 C 7.382812 -14.585938 7.382812 -14.761719 7.351562 -18.234375 L 7.324219 -21.882812 L 7.234375 -22.144531 C 7.089844 -22.492188 6.738281 -22.816406 6.390625 -22.929688 C 6.15625 -23.019531 5.980469 -23.019531 4.871094 -23.019531 C 3.648438 -23.019531 3.589844 -23.019531 3.355469 -22.929688 C 2.886719 -22.699219 2.65625 -22.40625 2.507812 -21.882812 C 2.449219 -21.589844 2.449219 -1.808594 2.539062 -1.3125 C 2.65625 -0.582031 2.976562 -0.203125 3.675781 -0.0273438 Z M 3.675781 -0.0273438 "/></g></g></g><g fill="rgb(14.118958%, 14.118958%, 14.118958%)" fill-opacity="1"><g transform="translate(81.811722, 32.80541)"><g><path d="M 3.996094 -0.0273438 C 4.230469 0 7.90625 0.0273438 12.164062 0 L 19.898438 0 L 20.1875 -0.0859375 C 20.566406 -0.234375 20.800781 -0.378906 20.949219 -0.671875 C 21.238281 -1.136719 21.210938 -0.554688 21.210938 -11.289062 C 21.210938 -17.066406 21.179688 -21.386719 21.152344 -21.617188 C 21.09375 -22.320312 20.800781 -22.757812 20.246094 -22.960938 C 20.015625 -23.078125 19.925781 -23.078125 18.757812 -23.078125 C 17.707031 -23.078125 17.503906 -23.046875 17.300781 -22.988281 C 16.777344 -22.785156 16.484375 -22.464844 16.367188 -21.882812 C 16.308594 -21.589844 16.28125 -20.042969 16.25 -13.625 C 16.222656 -6.125 16.222656 -5.71875 16.132812 -5.542969 C 15.957031 -5.132812 16.25 -5.164062 11.816406 -5.164062 C 8.050781 -5.164062 7.90625 -5.164062 7.761719 -5.25 C 7.671875 -5.308594 7.585938 -5.425781 7.527344 -5.515625 C 7.441406 -5.6875 7.441406 -6.15625 7.410156 -13.742188 C 7.410156 -21.355469 7.382812 -21.792969 7.324219 -22.027344 C 7.148438 -22.523438 6.886719 -22.785156 6.417969 -22.988281 C 6.242188 -23.046875 6.039062 -23.078125 4.960938 -23.078125 C 3.761719 -23.078125 3.707031 -23.078125 3.441406 -22.960938 C 2.917969 -22.757812 2.625 -22.375 2.539062 -21.765625 C 2.507812 -21.558594 2.480469 -17.535156 2.480469 -11.378906 L 2.480469 -1.34375 L 2.566406 -1.050781 C 2.828125 -0.378906 3.210938 -0.0859375 3.996094 -0.0273438 Z M 3.996094 -0.0273438 "/></g></g></g><g fill="rgb(14.118958%, 14.118958%, 14.118958%)" fill-opacity="1"><g transform="translate(123.005171, 32.80541)"><g><path d="M 3.707031 0 C 3.820312 0 4.40625 0.0273438 4.988281 0.0273438 C 5.835938 0 6.066406 0 6.273438 -0.0859375 C 6.621094 -0.203125 6.945312 -0.523438 7.089844 -0.875 L 7.207031 -1.136719 L 7.234375 -7.992188 C 7.265625 -12.835938 7.265625 -14.9375 7.324219 -15.054688 C 7.351562 -15.171875 7.410156 -15.289062 7.441406 -15.316406 C 7.496094 -15.375 7.527344 -15.375 7.644531 -15.257812 C 7.761719 -15.140625 8.140625 -14.382812 8.34375 -13.917969 C 9.132812 -12.050781 13.683594 -1.605469 13.859375 -1.226562 C 14.207031 -0.523438 14.5 -0.234375 15.054688 -0.0859375 C 15.316406 0 15.550781 0 17.535156 0 C 19.605469 0 19.78125 0 20.042969 -0.0859375 C 20.394531 -0.203125 20.773438 -0.554688 20.917969 -0.90625 C 21.003906 -1.136719 21.003906 -1.398438 21.003906 -11.230469 C 21.003906 -18.117188 21.003906 -21.441406 20.976562 -21.675781 C 20.859375 -22.40625 20.507812 -22.757812 19.78125 -22.929688 C 19.402344 -23.019531 17.972656 -23.019531 17.535156 -22.929688 C 16.949219 -22.84375 16.542969 -22.523438 16.335938 -22.054688 C 16.25 -21.824219 16.25 -21.386719 16.222656 -14.9375 C 16.191406 -7.761719 16.191406 -7.671875 16.015625 -7.585938 C 15.871094 -7.527344 15.695312 -7.789062 15.402344 -8.402344 C 15.230469 -8.753906 13.886719 -11.816406 12.398438 -15.199219 C 10.941406 -18.585938 9.628906 -21.53125 9.539062 -21.734375 C 9.160156 -22.492188 8.722656 -22.816406 7.933594 -22.902344 C 7.441406 -22.960938 4.316406 -22.960938 3.851562 -22.902344 C 3.152344 -22.816406 2.742188 -22.492188 2.566406 -21.9375 C 2.480469 -21.675781 2.480469 -21.355469 2.480469 -11.40625 L 2.480469 -1.136719 L 2.566406 -0.875 C 2.683594 -0.554688 3.003906 -0.234375 3.265625 -0.117188 C 3.382812 -0.0859375 3.558594 -0.0273438 3.707031 0 Z M 3.707031 0 "/></g></g></g><g fill="rgb(14.118958%, 14.118958%, 14.118958%)" fill-opacity="1"><g transform="translate(163.994422, 32.80541)"><g><path d="M 11.320312 0 C 12.109375 0.0859375 12.953125 -0.0273438 13.304688 -0.234375 C 13.535156 -0.378906 13.710938 -0.613281 13.859375 -0.933594 L 13.945312 -1.195312 L 13.976562 -9.335938 C 14.003906 -18.261719 13.976562 -17.652344 14.296875 -17.855469 C 14.414062 -17.972656 14.46875 -17.972656 17.15625 -18 C 19.78125 -18.03125 19.898438 -18.03125 20.21875 -18.117188 C 20.800781 -18.320312 21.121094 -18.730469 21.210938 -19.402344 C 21.269531 -19.839844 21.269531 -21.003906 21.210938 -21.558594 C 21.121094 -22.289062 20.859375 -22.726562 20.304688 -22.929688 L 20.042969 -23.046875 L 3.707031 -23.046875 L 3.441406 -22.929688 C 3.09375 -22.785156 2.800781 -22.550781 2.683594 -22.289062 C 2.480469 -21.910156 2.449219 -21.675781 2.480469 -20.539062 C 2.480469 -19.574219 2.480469 -19.371094 2.566406 -19.109375 C 2.683594 -18.730469 2.859375 -18.46875 3.152344 -18.292969 C 3.589844 -18.03125 3.648438 -18.03125 6.5625 -18 C 9.570312 -17.972656 9.421875 -17.972656 9.597656 -17.652344 C 9.6875 -17.503906 9.6875 -17.007812 9.714844 -9.335938 C 9.746094 -1.398438 9.746094 -1.195312 9.832031 -0.933594 C 9.976562 -0.582031 10.328125 -0.234375 10.679688 -0.117188 C 10.824219 -0.0585938 11.117188 0 11.320312 0 Z M 11.320312 0 "/></g></g></g><g clip-path="url(#id1)"><g clip-path="url(#id2)"><g clip-path="url(#id3)"><path fill="rgb(26.669312%, 83.918762%, 17.248535%)" d="M 17.636719 10.808594 C 15.457031 12.988281 13.277344 15.167969 11.097656 17.347656 C 11.582031 17.347656 12.0625 17.347656 12.546875 17.347656 C 10.367188 15.167969 8.1875 12.988281 6.007812 10.808594 C 5.613281 10.414062 4.953125 10.414062 4.558594 10.808594 C 3.355469 12.011719 2.152344 13.214844 0.949219 14.417969 C 0.554688 14.8125 0.554688 15.472656 0.949219 15.867188 C 3.128906 18.046875 5.308594 20.226562 7.488281 22.40625 C 7.488281 21.921875 7.488281 21.4375 7.488281 20.957031 C 5.308594 23.136719 3.128906 25.316406 0.949219 27.496094 C 0.554688 27.890625 0.554688 28.550781 0.949219 28.945312 C 2.152344 30.148438 3.355469 31.351562 4.558594 32.550781 C 4.953125 32.949219 5.613281 32.949219 6.007812 32.550781 C 8.1875 30.371094 10.367188 28.191406 12.546875 26.011719 C 12.0625 26.011719 11.582031 26.015625 11.097656 26.011719 C 13.277344 28.191406 15.457031 30.371094 17.636719 32.554688 C 18.03125 32.949219 18.691406 32.949219 19.085938 32.550781 C 20.289062 31.351562 21.492188 30.148438 22.695312 28.945312 C 23.089844 28.550781 23.089844 27.890625 22.695312 27.496094 C 20.515625 25.316406 18.335938 23.136719 16.15625 20.957031 C 16.15625 21.4375 16.15625 21.921875 16.15625 22.40625 C 18.335938 20.226562 20.515625 18.046875 22.695312 15.867188 C 23.089844 15.472656 23.089844 14.8125 22.695312 14.417969 C 21.492188 13.214844 20.289062 12.011719 19.085938 10.808594 C 18.152344 9.871094 16.699219 11.324219 17.636719 12.257812 C 18.839844 13.460938 20.039062 14.664062 21.242188 15.867188 C 21.242188 15.382812 21.242188 14.898438 21.242188 14.417969 C 19.0625 16.597656 16.882812 18.773438 14.703125 20.957031 C 14.308594 21.351562 14.308594 22.011719 14.703125 22.40625 C 16.882812 24.585938 19.0625 26.765625 21.242188 28.945312 C 21.242188 28.460938 21.242188 27.976562 21.242188 27.496094 C 20.039062 28.695312 18.839844 29.898438 17.636719 31.101562 C 18.121094 31.101562 18.601562 31.101562 19.085938 31.101562 C 16.90625 28.921875 14.726562 26.742188 12.546875 24.5625 C 12.152344 24.167969 11.492188 24.167969 11.097656 24.5625 C 8.917969 26.742188 6.738281 28.921875 4.558594 31.101562 C 5.042969 31.101562 5.523438 31.101562 6.007812 31.101562 C 4.804688 29.898438 3.601562 28.695312 2.402344 27.496094 C 2.402344 27.976562 2.402344 28.460938 2.402344 28.945312 C 4.582031 26.765625 6.761719 24.585938 8.941406 22.40625 C 9.335938 22.011719 9.335938 21.351562 8.941406 20.957031 C 6.761719 18.777344 4.582031 16.597656 2.402344 14.414062 C 2.402344 14.898438 2.402344 15.382812 2.402344 15.867188 C 3.601562 14.664062 4.804688 13.460938 6.007812 12.257812 C 5.523438 12.257812 5.042969 12.257812 4.558594 12.257812 C 6.738281 14.4375 8.917969 16.617188 11.097656 18.796875 C 11.492188 19.195312 12.152344 19.195312 12.546875 18.796875 C 14.726562 16.617188 16.90625 14.4375 19.085938 12.257812 C 20.023438 11.324219 18.570312 9.871094 17.636719 10.808594 Z M 17.636719 10.808594 " fill-opacity="1" fill-rule="nonzero"/></g></g></g></svg>