<?xml version="1.0" standalone="no"?>
<!DOCTYPE svg PUBLIC "-//W3C//DTD SVG 20010904//EN"
 "http://www.w3.org/TR/2001/REC-SVG-20010904/DTD/svg10.dtd">
<svg version="1.0" xmlns="http://www.w3.org/2000/svg"
 width="762.000000pt" height="762.000000pt" viewBox="0 0 762.000000 762.000000"
 preserveAspectRatio="xMidYMid meet">
<metadata>
Created by potrace 1.14, written by Peter Selinger 2001-2017
</metadata>
<g transform="translate(0.000000,762.000000) scale(0.100000,-0.100000)"
fill="#000000" stroke="none">
<path d="M1943 5646 c-1014 -1013 -1843 -1847 -1843 -1852 0 -5 832 -841 1848
-1857 l1848 -1848 1852 1853 1853 1852 -1848 1848 c-1016 1016 -1852 1848
-1858 1848 -5 -1 -839 -830 -1852 -1844z m3465 -240 c881 -881 1602 -1607
1602 -1612 0 -5 -723 -732 -1607 -1616 l-1607 -1607 -1009 1010 c-584 584
-1006 1014 -1001 1019 5 5 70 49 145 98 l136 89 234 -90 234 -90 46 -61 c26
-34 140 -184 253 -333 178 -235 211 -273 234 -274 122 -4 207 -8 328 -13 l140
-6 52 107 c28 60 76 162 107 228 30 66 68 147 84 180 16 33 28 61 26 63 -3 3
-91 -46 -187 -103 -67 -40 -110 -58 -116 -48 -4 6 -30 37 -58 69 -28 33 -95
111 -149 174 -53 63 -118 139 -144 169 -64 74 -67 82 -45 94 11 6 160 105 332
220 l313 209 162 -2 c260 -3 541 -7 549 -9 4 0 3 -13 -2 -28 -37 -117 -101
-346 -98 -352 2 -4 118 41 258 101 140 60 356 152 480 204 124 53 226 97 228
99 3 2 -400 549 -833 1130 -78 105 -150 203 -159 217 -10 15 -27 30 -37 33
-11 4 -99 45 -195 91 -96 46 -176 84 -178 84 -2 0 -64 29 -137 64 -139 66
-475 225 -729 343 -47 22 -125 60 -175 83 -49 24 -184 87 -299 141 -115 55
-211 101 -213 103 -5 4 1417 1426 1426 1426 3 0 727 -722 1609 -1604z m-1839
-830 c156 -52 287 -98 292 -103 21 -21 187 -248 184 -251 -3 -4 -123 10 -195
22 -14 3 -45 7 -70 10 -25 4 -56 8 -70 11 -14 2 -43 7 -65 9 -29 4 -48 15 -69
38 -16 18 -70 78 -120 132 -50 55 -102 111 -114 125 -13 14 -42 45 -64 69 -51
54 -64 57 291 -62z"/>
</g>
</svg>
