<?xml version="1.0" standalone="no"?>
<!DOCTYPE svg PUBLIC "-//W3C//DTD SVG 20010904//EN"
 "http://www.w3.org/TR/2001/REC-SVG-20010904/DTD/svg10.dtd">
<svg version="1.0" xmlns="http://www.w3.org/2000/svg"
 width="480.000000pt" height="480.000000pt" viewBox="0 0 480.000000 480.000000"
 preserveAspectRatio="xMidYMid meet">
<metadata>
Created by potrace 1.14, written by Peter Selinger 2001-2017
</metadata>
<g transform="translate(0.000000,480.000000) scale(0.100000,-0.100000)"
fill="#000000" stroke="none">
<path d="M1075 4617 c-49 -9 -58 -18 -438 -396 -214 -212 -397 -402 -407 -422
-11 -20 -20 -54 -21 -75 -5 -96 -19 -79 611 -709 l587 -588 -586 -586 c-619
-619 -611 -610 -611 -698 0 -85 -2 -82 357 -442 189 -189 343 -348 343 -352 0
-5 5 -9 10 -9 6 0 23 -15 39 -33 62 -70 171 -94 247 -54 16 8 292 277 613 597
l582 582 579 -578 c318 -318 596 -588 617 -599 39 -22 125 -28 151 -12 6 5 12
5 12 2 0 -12 42 29 422 405 286 283 391 394 400 420 16 49 13 115 -8 158 -11
23 -240 259 -596 615 -318 319 -578 581 -578 584 0 3 261 266 581 586 384 384
585 592 595 616 21 50 23 99 7 148 -12 35 -81 109 -386 414 -205 204 -386 382
-402 395 -36 27 -114 47 -131 34 -6 -6 -13 -7 -16 -4 -22 21 -132 -81 -667
-616 l-580 -579 -579 577 c-318 317 -588 585 -600 594 -11 9 -34 19 -51 21
-16 3 -33 7 -38 9 -4 3 -30 0 -58 -5z m619 -1059 c561 -561 616 -614 616 -602
0 4 6 1 14 -5 7 -6 36 -12 62 -12 51 -1 61 1 107 19 15 7 284 267 596 579 312
313 575 574 584 581 14 12 41 -11 221 -192 114 -114 206 -210 206 -215 0 -5
-262 -272 -583 -593 -534 -534 -584 -587 -596 -630 -15 -53 -11 -110 11 -153
9 -17 275 -290 592 -607 317 -317 576 -580 576 -586 0 -10 -399 -412 -412
-415 -4 -1 -273 262 -597 585 -417 416 -597 589 -617 594 -16 4 -54 7 -85 7
-44 0 -63 -5 -90 -24 -19 -13 -293 -282 -608 -597 l-575 -573 -208 208 c-114
114 -208 212 -208 216 0 4 262 270 583 591 621 622 607 605 607 702 0 21 -9
56 -20 78 -13 27 -220 241 -595 615 -316 316 -575 578 -575 582 0 9 408 419
416 419 3 0 263 -258 578 -572z"/>
</g>
</svg>
