<svg xmlns="http://www.w3.org/2000/svg" xmlns:xlink="http://www.w3.org/1999/xlink" xml:space="preserve" id="Layer_1" x="0" y="0" version="1.0" viewBox="0 0 522 126"><style>.st1{fill:#00505b}.st2{fill:#00b0cc}</style><defs><path id="SVGID_1_" d="M9.4 4.1H513V121H9.4z"/></defs><clipPath id="SVGID_00000011751349665597028380000004345005256217036709_"><use xlink:href="#SVGID_1_" overflow="visible"/></clipPath><path fill="#00505b" d="M150.8 46.1c5.6 0 8.2-3.1 8.2-7.9 0-5-2.5-7.9-8.2-7.9-5.9 0-8 2.9-8 7.9 0 4.7 2.2 7.9 8 7.9m12.9 42.6c-4.9.5-5.2-6.9-5.2-8.1V51.3h-15.4v35.6c0 6.5.7 15.6 13.1 15.6 4.8.4 9.8-2.5 13.2-4.9-2-2.6-3.6-5.7-4.7-9.1l-1 .2m-30.1 1.6c-1.5 0-2.5-1.1-2.5-3.6V27h-15.3v60c0 6.4.7 15.4 13 15.4 5.4 0 9.6-3 9.6-3l-.7-10a9 9 0 0 1-4.1.9m67.1-2.6s-2.7 1.9-7.3 1.9c-5.7 0-9.6-4.3-9.6-13.1 0-9 4.2-13.9 10.2-13.9 4.1 0 6.7 1.3 6.7 1.3v23.8zm.2-35.8s-4.1-1.2-8.4-1.2c-14.2 0-24.6 10.3-24.6 26.2 0 17.4 10.6 25.5 21.6 25.5 9.1 0 15.2-5.1 15.2-5.1l2.7 4.1h8.8V27h-15.3v24.9zm31.1-5.8c5.6 0 8.2-3.1 8.2-7.9 0-5-2.5-7.9-8.2-7.9-5.9 0-8 2.9-8 7.9 0 4.7 2.2 7.9 8 7.9M280.7 72l-14.7.5c0-5.8 3.5-9.4 8-9.4 4.9 0 7.3 3.3 6.7 8.9m-6.1-21.3c-14.4 0-23.9 10.7-23.9 26.6 0 17.2 11.1 25.1 26.2 25.1 10.6 0 17.7-4.5 17.7-4.5L293 85.4s-6.2 3.5-14.3 3.5c-6.9 0-11.8-3.8-12.3-8.5H295s.9-4.7.9-8.5c-.1-10.6-5.8-21.2-21.3-21.2m56.8 0c-9.6 0-16.6 5.1-16.6 5.1l-2.7-4.1h-8.7v49.8h15.4V65.6s3.6-2.6 8.2-2.6c4.3 0 6.2 2.3 6.2 7.3v31.2h15.3V67.8c-.1-8.9-2.6-17.1-17.1-17.1m48.5 37.9c-2.6 0-4-1.4-4-4.4v-22h12.4V51.7H375V34.9h-11.6v16.7h-10.7v10.6h9.6v24.7c0 10 3.2 15.5 12.1 15.5 8.5 0 14.4-3.4 14.4-3.4l-1-12c.1.1-4.5 1.6-7.9 1.6m-134.6.1c-4.9.5-5.2-6.9-5.2-8.1V51.3h-15.4v35.6c0 6.5.7 15.6 13.1 15.6 4.8.4 9.8-2.5 13.2-4.9-2-2.6-3.6-5.7-4.7-9.1l-1 .2" clip-path="url(#SVGID_00000011751349665597028380000004345005256217036709_)"/><path d="M46.4 50.1 36.3 83.7l-9.9-33.6h-17l19.4 51.1h15.1l19.4-51.1z" class="st1"/><path d="M138.6 111.3h82.6v9.7h-82.6z" class="st2"/><defs><path id="SVGID_00000101088501478787161260000000588650505663936422_" d="M9.4 4.1H513V121H9.4z"/></defs><clipPath id="SVGID_00000149383186520292227260000003826698947353713852_"><use xlink:href="#SVGID_00000101088501478787161260000000588650505663936422_" overflow="visible"/></clipPath><path fill="#00505b" d="M91.4 80.4c-6.1.3-11.1 1.4-11.1 5.4 0 1.9 1.2 4.1 4.3 4.1 3.7 0 6.8-2.9 6.8-2.9v-6.6zM69 57.2s7.7-4 16.9-4c16.1 0 19.7 7.7 19.7 20.3V87c0 1.5 1.1 2.5 2.3 2.5 2.1 0 3.7-.9 3.7-.9l.6 9.1s-4.4 2.7-10.1 2.7c-5.1 0-7.6-3.8-8.3-6.9 0 0-5.1 6.9-14.6 6.9-6.2 0-12.9-3.2-12.9-12.6 0-15 21.5-14.8 25.3-14.8 0-5.2-2-8-7.8-8-7.1 0-14.3 3.6-14.3 3.6L69 57.2z" clip-path="url(#SVGID_00000149383186520292227260000003826698947353713852_)"/><path d="m456.5 4.1-19.4 19.3 7.8 7.8 11.6-11.5 10.8 10.8 7.8-7.8zm30 45.7 10.9 10.8-11.5 11.5 7.8 7.8L513 60.6 494.4 42z" class="st1"/><path d="m457.5 100.5-10.9-10.8-7.8 7.8 18.7 18.7 29.9-29.9-7.9-7.8z" class="st2"/><path d="M464.8 28h8.2v40.3h-8.2z" class="st1" transform="rotate(-45 469 48.2)"/><path d="M452.8 39.9h8.2v40.3h-8.2z" class="st1" transform="rotate(-45 457 60)"/><path d="M440.7 52.1h8.2v40.3h-8.2z" class="st1" transform="rotate(-45 444.8 72.2)"/><path d="m416.4 58.6 10.8-10.8-7.8-7.8-18.6 18.6L420.1 78l7.8-7.8z" class="st1"/></svg>